<?xml version="1.0" encoding="utf-8"?>
<!-- Generator: Adobe Illustrator 17.1.0, SVG Export Plug-In . SVG Version: 6.00 Build 0)  -->
<!DOCTYPE svg PUBLIC "-//W3C//DTD SVG 1.1//EN" "http://www.w3.org/Graphics/SVG/1.1/DTD/svg11.dtd">
<svg version="1.1" id="Layer_1" xmlns="http://www.w3.org/2000/svg" xmlns:xlink="http://www.w3.org/1999/xlink" x="0px" y="0px"
	 viewBox="0 252 612 289" enable-background="new 0 252 612 289" xml:space="preserve">
<g>
	<g>
		<rect x="141" y="423" fill="#CCCCCC" width="69" height="68"/>
		<rect x="148" y="434" fill="#B3B3B3" width="12" height="24"/>
		<rect x="147" y="455" fill="#999999" width="14" height="3"/>
		<rect x="167" y="434" fill="#B3B3B3" width="11" height="24"/>
		<rect x="166" y="455" fill="#999999" width="13" height="3"/>
		<rect x="185" y="434" fill="#B3B3B3" width="12" height="24"/>
		<rect x="184" y="455" fill="#999999" width="14" height="3"/>
	</g>
	<g>
		<rect x="132" y="473" opacity="0.5" fill="#D9D9D9" enable-background="new    " width="34" height="13"/>
		<path opacity="0.2" fill="#999999" enable-background="new    " d="M201,476v-3h-80.343c2.353,25,1.075,41-0.281,67H197v-12h4v-2
			h-4v-23h4v-3h-4v-24H201z"/>
		<rect x="112" y="471" fill="#D9D9D9" width="82" height="69"/>
		<rect x="109" y="498" fill="#B3B3B3" width="89" height="2"/>
		<rect x="109" y="471" fill="#B3B3B3" width="89" height="2"/>
		<rect x="109" y="523" fill="#B3B3B3" width="89" height="3"/>
		<rect x="148" y="481" fill="#B3B3B3" width="10" height="11"/>
		<rect x="123" y="481" fill="#B3B3B3" width="10" height="11"/>
		<rect x="174" y="481" fill="#B3B3B3" width="10" height="11"/>
		<rect x="148" y="505" fill="#B3B3B3" width="10" height="12"/>
		<rect x="123" y="505" fill="#B3B3B3" width="10" height="12"/>
		<rect x="174" y="505" fill="#B3B3B3" width="10" height="12"/>
	</g>
	<g>
		<g>
			<polygon opacity="0.1" enable-background="new    " points="264,423 184.01,423 130.913,538 264,538 			"/>
			<rect x="188" y="369" fill="#E6E6E6" width="80" height="169"/>
			<g>
				<rect x="224" y="393" fill="#CCCCCC" width="9" height="119"/>
				<rect x="201" y="393" fill="#CCCCCC" width="9" height="119"/>
				<rect x="247" y="393" fill="#CCCCCC" width="9" height="119"/>
			</g>
			<polygon opacity="0.1" enable-background="new    " points="259,369.11 259,538 187.878,538 			"/>
		</g>
		<rect x="204" y="365" fill="#F1F0AF" width="48" height="4"/>
		<rect x="204" y="365" fill="#D9D9D9" width="48" height="4"/>
		<rect x="204" y="365" fill="#B3B3B3" width="23" height="4"/>
	</g>
	<g>
		<polygon fill="#EA5752" points="321,269 321,266 323,266 323,263.762 323,261 321,261 321,264 318,264 318,266 316,266 316,264 
			313,264 313,261 310,261 310,259 308,259 308,261.207 308,264 310,264 310,266 308,266 308,264 305.361,264 305.361,264 303,264 
			303,265 300,265 300,262 303,262 303,261.207 303,259 300,259 300,261 298,261 298,264 295,264 295,266 293,266 293,264 290,264 
			290,260 287,260 287,263.762 287,266 290,266 290,269 287,269 287,271.428 287,271.428 287,298 299.557,298 302.614,303.787 
			305.798,309.549 308.983,303.664 312.041,298 323,298 323,269 		"/>
		<rect x="293" y="260" fill="#EA5752" width="2" height="2"/>
		<rect x="295" y="257" fill="#EA5752" width="3" height="3"/>
		<rect x="305" y="256" fill="#EA5752" width="3" height="3"/>
		<rect x="316" y="261" fill="#EA5752" width="2" height="3"/>
		<rect x="313" y="259" fill="#EA5752" width="3" height="2"/>
		<rect x="318" y="255" fill="#EA5752" width="3" height="2"/>
		<rect x="290" y="255" fill="#EA5752" width="3" height="2"/>
		<rect x="298" y="252" fill="#EA5752" width="2" height="3"/>
		<rect x="312" y="252" fill="#EA5752" width="2" height="3"/>
	</g>
	<rect x="465" y="475" fill="#D9D9D9" width="40" height="62"/>
	<rect x="459" y="485" fill="#BFBFBF" width="38" height="10"/>
	<rect x="459" y="501" fill="#BFBFBF" width="38" height="12"/>
	<rect x="459" y="519" fill="#BFBFBF" width="38" height="11"/>
	<g>
		<polygon fill="#F1F0AF" points="386.949,377.335 364,385.167 364,394.675 410,392.117 410,385.167 		"/>
		<rect x="358" y="389" fill="#F1F0AF" width="59" height="10"/>
		<polygon fill="#CCCCCC" points="410,389 410,385.167 386.949,377.335 364,385.167 364,389 358,389 358,399 417,399 417,389 		"/>
		<rect x="349" y="393" fill="#CCCCCC" width="75" height="145"/>
		<rect x="349" y="393" fill="#B3B3B3" width="75" height="5"/>
		<rect x="360" y="417" fill="#B3B3B3" width="53" height="6"/>
		<rect x="360" y="432" fill="#B3B3B3" width="53" height="7"/>
		<rect x="360" y="446" fill="#B3B3B3" width="53" height="7"/>
		<rect x="360" y="462" fill="#B3B3B3" width="53" height="6"/>
		<rect x="360" y="476" fill="#B3B3B3" width="53" height="6"/>
		<rect x="360" y="491" fill="#B3B3B3" width="53" height="7"/>
		<rect x="360" y="505" fill="#B3B3B3" width="53" height="7"/>
	</g>
	<rect x="284" y="321" fill="#6DC5A7" width="44" height="18"/>
	<rect x="271" y="330" fill="#6DC5A7" width="70" height="27"/>
	<polygon fill="#666666" points="328,330 328,321 284,321 284,330 271,330 271,357 341,357 341,330 	"/>
	<polygon opacity="0.1" enable-background="new    " points="328,330 328,321 284,321 284,330 271,330 271,357 341,357 341,330 	"/>
	<rect x="259" y="342" fill="#666666" width="94" height="196"/>
	<rect x="259" y="342" opacity="0.3" fill="#010101" enable-background="new    " width="94" height="5"/>
	<g opacity="0.3">
		<rect x="290" y="384" fill="#010101" width="13" height="18"/>
		<rect x="271" y="384" fill="#010101" width="13" height="18"/>
		<rect x="309" y="384" fill="#010101" width="13" height="18"/>
		<rect x="328" y="384" fill="#010101" width="13" height="18"/>
		<rect x="290" y="409" fill="#010101" width="13" height="18"/>
		<rect x="271" y="409" fill="#010101" width="13" height="18"/>
		<rect x="309" y="409" fill="#010101" width="13" height="18"/>
		<rect x="328" y="409" fill="#010101" width="13" height="18"/>
		<rect x="290" y="358" fill="#010101" width="13" height="17"/>
		<rect x="271" y="358" fill="#010101" width="13" height="17"/>
		<rect x="309" y="358" fill="#010101" width="13" height="17"/>
		<rect x="328" y="358" fill="#010101" width="13" height="17"/>
		<rect x="290" y="435" fill="#010101" width="13" height="18"/>
		<rect x="271" y="435" fill="#010101" width="13" height="18"/>
		<rect x="309" y="435" fill="#010101" width="13" height="18"/>
		<rect x="328" y="435" fill="#010101" width="13" height="18"/>
		<rect x="290" y="461" fill="#010101" width="13" height="17"/>
		<rect x="271" y="461" fill="#010101" width="13" height="17"/>
		<rect x="309" y="461" fill="#010101" width="13" height="17"/>
		<rect x="328" y="461" fill="#010101" width="13" height="17"/>
		<rect x="290" y="486" fill="#010101" width="13" height="18"/>
		<rect x="271" y="486" fill="#010101" width="13" height="18"/>
		<rect x="309" y="486" fill="#010101" width="13" height="18"/>
		<rect x="328" y="486" fill="#010101" width="13" height="18"/>
	</g>
	<g opacity="0.3">
		<rect x="293" y="513" width="25" height="25"/>
	</g>
	<g opacity="0.3">
		<polygon points="310,538 318,538 318,513 293,513 293,519 310,519 		"/>
	</g>
	<rect x="277" y="352.617" fill="none" stroke="#666666" stroke-width="2" stroke-miterlimit="10" width="0" height="153.62"/>
	<rect x="296" y="352.617" fill="none" stroke="#666666" stroke-width="2" stroke-miterlimit="10" width="0" height="153.62"/>
	<rect x="316" y="352.617" fill="none" stroke="#666666" stroke-width="2" stroke-miterlimit="10" width="0" height="153.62"/>
	<rect x="335" y="352.617" fill="none" stroke="#666666" stroke-width="2" stroke-miterlimit="10" width="0" height="153.62"/>
	<polygon opacity="0.1" enable-background="new    " points="431.852,449.248 393.217,446.832 350.659,539.602 431.951,540.88 	"/>
	<rect x="400" y="475" opacity="0.1" enable-background="new    " width="73" height="63"/>
	<rect x="397" y="452" fill="#E6E6E6" width="73" height="86"/>
	<polygon fill="#E6E6E6" points="475,446 394,446 394,452.263 397.838,454 470.481,454 475,452.263 	"/>
	<polygon fill="#CCCCCC" points="393.217,452 397.838,454 470.481,454 475.104,452 	"/>
	<polygon opacity="0.1" enable-background="new    " points="434.268,446 394,446 394,452.263 397.702,454 397,454 397,538 
		434.367,538 	"/>
	<line fill="none" stroke="#A6A6A6" stroke-width="3" stroke-miterlimit="10" x1="0" y1="539.5" x2="612" y2="539.5"/>
	<g>
		<polygon fill="#FFFFFF" points="295.818,275 302.986,275 317.663,292 309.827,292 		"/>
		<polygon fill="#FFFFFF" points="315.708,275 308.541,275 293.863,292 301.699,292 		"/>
	</g>
	<g>
		<rect x="551" y="521" fill="#B4C295" width="2" height="17"/>
		<rect x="551" y="521" fill="#999999" width="2" height="17"/>
		<path fill="#BFBFBF" d="M559.816,521.503c0,4.614-3.742,8.355-8.358,8.355s-8.358-3.74-8.358-8.355
			c0-4.614,3.742-19.014,8.358-19.014C556.074,502.489,559.816,516.89,559.816,521.503z"/>
		<line fill="none" stroke="#D9D9D9" stroke-miterlimit="10" x1="551.5" y1="527" x2="551.5" y2="512"/>
		
			<line fill="none" stroke="#D9D9D9" stroke-width="0.9596" stroke-miterlimit="10" x1="551.324" y1="519.219" x2="555.989" y2="514.554"/>
		
			<line fill="none" stroke="#D9D9D9" stroke-width="0.9596" stroke-miterlimit="10" x1="551.324" y1="523.348" x2="546.659" y2="518.684"/>
		<g>
			<rect x="529" y="523" fill="#B4C295" width="3" height="15"/>
			<rect x="529" y="523" fill="#999999" width="3" height="15"/>
			<path fill="#BFBFBF" d="M537.574,523.284c0,4.12-3.342,7.462-7.465,7.462s-7.465-3.341-7.465-7.462
				c0-4.12,3.342-16.983,7.465-16.983S537.574,519.163,537.574,523.284z"/>
			<line fill="none" stroke="#D9D9D9" stroke-miterlimit="10" x1="530.5" y1="528" x2="530.5" y2="514"/>
			
				<line fill="none" stroke="#D9D9D9" stroke-width="0.9596" stroke-miterlimit="10" x1="530.193" y1="521.474" x2="534.256" y2="517.411"/>
			
				<line fill="none" stroke="#D9D9D9" stroke-width="0.9596" stroke-miterlimit="10" x1="530.193" y1="525.071" x2="526.13" y2="521.008"/>
		</g>
		<g>
			<rect x="82" y="523" fill="#B4C295" width="2" height="15"/>
			<rect x="59" y="521" fill="#B4C295" width="2" height="17"/>
			<rect x="82" y="523" fill="#999999" width="2" height="15"/>
			<rect x="59" y="521" fill="#999999" width="2" height="17"/>
			<path fill="#BFBFBF" d="M90.128,523.284c0,4.12-3.342,7.462-7.465,7.462s-7.465-3.341-7.465-7.462
				c0-4.12,3.342-16.983,7.465-16.983C86.785,506.301,90.128,519.163,90.128,523.284z"/>
			<path fill="#BFBFBF" d="M68.9,521.503c0,4.614-3.742,8.355-8.358,8.355s-8.358-3.74-8.358-8.355
				c0-4.614,3.742-19.014,8.358-19.014S68.9,516.89,68.9,521.503z"/>
			<line fill="none" stroke="#D9D9D9" stroke-miterlimit="10" x1="60.5" y1="527" x2="60.5" y2="512"/>
			
				<line fill="none" stroke="#D9D9D9" stroke-width="0.9596" stroke-miterlimit="10" x1="60.409" y1="519.219" x2="65.074" y2="514.554"/>
			
				<line fill="none" stroke="#D9D9D9" stroke-width="0.9596" stroke-miterlimit="10" x1="60.409" y1="523.348" x2="55.744" y2="518.684"/>
			<line fill="none" stroke="#D9D9D9" stroke-miterlimit="10" x1="82.5" y1="528" x2="82.5" y2="514"/>
			
				<line fill="none" stroke="#D9D9D9" stroke-width="0.9596" stroke-miterlimit="10" x1="82.745" y1="521.474" x2="86.808" y2="517.411"/>
			
				<line fill="none" stroke="#D9D9D9" stroke-width="0.9596" stroke-miterlimit="10" x1="82.745" y1="525.071" x2="78.682" y2="521.008"/>
		</g>
	</g>
	<polygon opacity="0.1" enable-background="new    " points="305,321 284,321 284,330 271,330 271,342 259,342 259,537 305,537 	"/>
	<g>
		<rect x="419" y="489" fill="#B3B3B3" width="10" height="10"/>
		<rect x="404" y="489" fill="#B3B3B3" width="10" height="10"/>
		<rect x="440" y="489" fill="#CCCCCC" width="10" height="10"/>
		<rect x="455" y="489" fill="#CCCCCC" width="10" height="10"/>
		<rect x="419" y="507" fill="#B3B3B3" width="10" height="11"/>
		<rect x="404" y="507" fill="#B3B3B3" width="10" height="11"/>
		<rect x="440" y="507" fill="#CCCCCC" width="10" height="11"/>
		<rect x="455" y="507" fill="#CCCCCC" width="10" height="11"/>
		<rect x="419" y="469" fill="#B3B3B3" width="10" height="12"/>
		<rect x="404" y="469" fill="#B3B3B3" width="10" height="12"/>
		<rect x="440" y="469" fill="#CCCCCC" width="10" height="12"/>
		<rect x="455" y="469" fill="#CCCCCC" width="10" height="12"/>
	</g>
</g>
</svg>
