<?xml version="1.0" encoding="utf-8"?>
<!-- Generator: Adobe Illustrator 17.1.0, SVG Export Plug-In . SVG Version: 6.00 Build 0)  -->
<!DOCTYPE svg PUBLIC "-//W3C//DTD SVG 1.1//EN" "http://www.w3.org/Graphics/SVG/1.1/DTD/svg11.dtd">
<svg version="1.1" id="Layer_1" xmlns="http://www.w3.org/2000/svg" xmlns:xlink="http://www.w3.org/1999/xlink" x="0px" y="0px"
	 viewBox="0 0 479 225.895" enable-background="new 0 0 479 225.895" xml:space="preserve">
<g>
	<rect x="109.745" y="133.645" fill="#CCCCCC" width="54.509" height="53.5"/>
	<rect x="115.802" y="141.721" fill="#B3B3B3" width="9.085" height="19.179"/>
	<rect x="114.792" y="158.881" fill="#999999" width="11.104" height="2.019"/>
	<rect x="130.943" y="141.721" fill="#B3B3B3" width="8.075" height="19.179"/>
	<rect x="129.934" y="158.881" fill="#999999" width="10.094" height="2.019"/>
	<rect x="145.075" y="141.721" fill="#B3B3B3" width="9.085" height="19.179"/>
	<rect x="144.066" y="158.881" fill="#999999" width="11.104" height="2.019"/>
</g>
<g>
	<rect x="102.833" y="172.664" opacity="0.5" fill="#D9D9D9" width="27.25" height="10.093"/>
	<path opacity="0.2" fill="#999999" d="M157.333,174.682v-2.019H94.19c1.859,19.176,0.848,32.296-0.222,52.481h60.337v-9.083h3.028
		v-2.019h-3.028v-18.167h3.028v-2.019h-3.028v-19.176H157.333z"/>
	<rect x="87.694" y="170.645" fill="#D9D9D9" width="64.593" height="54.5"/>
	<rect x="84.667" y="191.84" fill="#B3B3B3" width="70.648" height="2.019"/>
	<rect x="84.667" y="170.645" fill="#B3B3B3" width="70.648" height="2.019"/>
	<rect x="84.667" y="212.025" fill="#B3B3B3" width="70.648" height="2.019"/>
	<rect x="115.954" y="178.719" fill="#B3B3B3" width="8.074" height="9.083"/>
	<rect x="95.769" y="178.719" fill="#B3B3B3" width="8.074" height="9.083"/>
	<rect x="136.139" y="178.719" fill="#B3B3B3" width="8.074" height="9.083"/>
	<rect x="115.954" y="197.895" fill="#B3B3B3" width="8.074" height="9.083"/>
	<rect x="95.769" y="197.895" fill="#B3B3B3" width="8.074" height="9.083"/>
	<rect x="136.139" y="197.895" fill="#B3B3B3" width="8.074" height="9.083"/>
</g>
<g>
	<g>
		<polygon opacity="0.1" points="207.187,133.814 143.977,133.814 102.265,224.145 207.187,224.145 		"/>
		<rect x="146.966" y="90.656" fill="#E6E6E6" width="63.232" height="133.489"/>
		<g>
			<rect x="175.069" y="109.726" fill="#CCCCCC" width="7.026" height="93.342"/>
			<rect x="157.003" y="109.726" fill="#CCCCCC" width="7.026" height="93.342"/>
			<rect x="193.135" y="109.726" fill="#CCCCCC" width="7.026" height="93.342"/>
		</g>
		<polygon opacity="0.1" points="203.172,91.217 203.172,224.145 147.014,224.145 		"/>
	</g>
	<rect x="160.014" y="87.645" fill="#F1F0AF" width="37.136" height="3.011"/>
	<rect x="160.014" y="87.645" fill="#D9D9D9" width="37.136" height="3.011"/>
	<rect x="160.014" y="87.645" fill="#B3B3B3" width="18.066" height="3.011"/>
</g>
<g>
	<polygon fill="#EA5752" points="251.31,12.895 251.307,10.785 253.329,10.726 253.326,8.675 253.322,6.639 251.3,6.754 
		251.303,8.895 249.28,8.895 249.284,10.798 247.261,10.859 247.258,8.895 245.228,8.895 245.231,6.757 243.209,6.702 
		243.205,4.649 241.182,4.638 241.186,6.653 241.189,8.672 243.212,8.667 243.216,10.689 241.193,10.692 241.106,8.669 239,8.672 
		239,8.685 237.372,8.678 237.405,10.701 235.403,10.692 235.422,8.669 237.45,8.678 237.461,6.655 237.471,4.633 235.449,4.624 
		235.441,6.647 233.418,6.638 233.41,8.661 231.387,8.652 231.378,10.675 229.356,10.666 229.364,8.644 227.341,8.635 227.35,6.612 
		225.301,6.639 225.319,8.626 225.131,10.649 227,10.653 227,12.895 225.302,12.895 225.293,14.895 225,14.895 225,35.895 
		234.457,35.895 236.85,40.375 239.342,44.861 241.835,40.291 244.228,35.895 253,35.895 253,12.895 	"/>
	<rect x="229.368" y="6.625" transform="matrix(1 0.0042 -0.0042 1 0.0345 -0.9786)" fill="#EA5752" width="2.023" height="2.023"/>
	<rect x="231.4" y="4.611" transform="matrix(1 0.0042 -0.0042 1 0.0257 -0.9777)" fill="#EA5752" width="2.023" height="2.023"/>
	<rect x="239.201" y="2.557" fill="#EA5752" width="2.023" height="2.023"/>
	<rect x="247.256" y="6.634" fill="#EA5752" width="2.023" height="2.023"/>
	<rect x="245.23" y="4.614" fill="#EA5752" width="2.023" height="2.023"/>
	<rect x="249.271" y="2.585" fill="#EA5752" width="2.023" height="2.023"/>
	<rect x="226.965" y="2.105" fill="#EA5752" width="2" height="2"/>
	<rect x="232.965" y="0.105" fill="#EA5752" width="2" height="2"/>
	<rect x="243.965" y="0.105" fill="#EA5752" width="2" height="2"/>
</g>
<g>
	<polygon fill="#F1F0AF" points="302.964,97.357 284.852,103.539 284.852,111.044 321.157,109.026 321.157,103.539 	"/>
	<rect x="279.809" y="106.437" fill="#F1F0AF" width="46.39" height="8.068"/>
	<polygon fill="#CCCCCC" points="321.157,106.437 321.157,103.539 302.964,97.357 284.852,103.539 284.852,106.437 279.809,106.437 
		279.809,114.505 326.199,114.505 326.199,106.437 	"/>
	<rect x="272.75" y="109.463" fill="#CCCCCC" width="59.5" height="114.966"/>
	<rect x="272.75" y="109.463" fill="#B3B3B3" width="59.5" height="4.034"/>
	<rect x="281.826" y="128.624" fill="#B3B3B3" width="41.347" height="5.042"/>
	<rect x="281.826" y="140.726" fill="#B3B3B3" width="41.347" height="5.042"/>
	<rect x="281.826" y="151.819" fill="#B3B3B3" width="41.347" height="5.042"/>
	<rect x="281.826" y="163.921" fill="#B3B3B3" width="41.347" height="5.042"/>
	<rect x="281.826" y="175.014" fill="#B3B3B3" width="41.347" height="5.042"/>
	<rect x="281.826" y="187.115" fill="#B3B3B3" width="41.347" height="5.042"/>
	<rect x="281.826" y="198.209" fill="#B3B3B3" width="41.347" height="5.042"/>
</g>
<rect x="222" y="53.895" fill="#6DC5A7" width="35" height="14"/>
<rect x="212" y="60.895" fill="#6DC5A7" width="55" height="21"/>
<polygon fill="#666666" points="257,60.895 257,53.895 222,53.895 222,60.895 212,60.895 212,81.895 267,81.895 267,60.895 "/>
<polygon opacity="0.1" points="257.312,60.77 257.312,53.645 221.688,53.645 221.688,60.77 211.509,60.77 211.509,82.145 
	267.491,82.145 267.491,60.77 "/>
<rect x="202.75" y="69.368" fill="#666666" width="73.5" height="155.055"/>
<rect x="203" y="69.895" opacity="0.3" fill="#010101" width="73" height="4"/>
<g opacity="0.3">
	<rect x="226.886" y="102.559" fill="#010101" width="10.091" height="14.127"/>
	<rect x="211.75" y="102.559" fill="#010101" width="10.091" height="14.127"/>
	<rect x="242.023" y="102.559" fill="#010101" width="10.091" height="14.127"/>
	<rect x="257.159" y="102.559" fill="#010101" width="10.091" height="14.127"/>
	<rect x="226.886" y="122.741" fill="#010101" width="10.091" height="14.127"/>
	<rect x="211.75" y="122.741" fill="#010101" width="10.091" height="14.127"/>
	<rect x="242.023" y="122.741" fill="#010101" width="10.091" height="14.127"/>
	<rect x="257.159" y="122.741" fill="#010101" width="10.091" height="14.127"/>
	<rect x="226.886" y="82.377" fill="#010101" width="10.091" height="13.118"/>
	<rect x="211.75" y="82.377" fill="#010101" width="10.091" height="13.118"/>
	<rect x="242.023" y="82.377" fill="#010101" width="10.091" height="13.118"/>
	<rect x="257.159" y="82.377" fill="#010101" width="10.091" height="13.118"/>
	<rect x="226.886" y="142.922" fill="#010101" width="10.091" height="14.127"/>
	<rect x="211.75" y="142.922" fill="#010101" width="10.091" height="14.127"/>
	<rect x="242.023" y="142.922" fill="#010101" width="10.091" height="14.127"/>
	<rect x="257.159" y="142.922" fill="#010101" width="10.091" height="14.127"/>
	<rect x="226.886" y="163.104" fill="#010101" width="10.091" height="14.127"/>
	<rect x="211.75" y="163.104" fill="#010101" width="10.091" height="14.127"/>
	<rect x="242.023" y="163.104" fill="#010101" width="10.091" height="14.127"/>
	<rect x="257.159" y="163.104" fill="#010101" width="10.091" height="14.127"/>
	<rect x="226.886" y="183.286" fill="#010101" width="10.091" height="14.127"/>
	<rect x="211.75" y="183.286" fill="#010101" width="10.091" height="14.127"/>
	<rect x="242.023" y="183.286" fill="#010101" width="10.091" height="14.127"/>
	<rect x="257.159" y="183.286" fill="#010101" width="10.091" height="14.127"/>
</g>
<g opacity="0.3">
	<rect x="229" y="203.895" width="20" height="20"/>
</g>
<g opacity="0.3">
	<polygon points="243,223.895 249,223.895 249,203.895 229,203.895 229,208.895 243,208.895 	"/>
</g>
<rect x="217" y="78.545" fill="none" stroke="#666666" stroke-width="2" stroke-miterlimit="10" width="0" height="120.235"/>
<rect x="232" y="78.545" fill="none" stroke="#666666" stroke-width="2" stroke-miterlimit="10" width="0" height="120.235"/>
<rect x="247" y="78.545" fill="none" stroke="#666666" stroke-width="2" stroke-miterlimit="10" width="0" height="120.235"/>
<rect x="262" y="78.545" fill="none" stroke="#666666" stroke-width="2" stroke-miterlimit="10" width="0" height="120.235"/>
<polygon opacity="0.1" points="338.002,154.176 307.763,152.285 274.454,224.894 338.079,225.895 "/>
<g>
	<rect x="364.061" y="173.743" fill="#D9D9D9" width="31.189" height="49.299"/>
	<rect x="359.03" y="181.791" fill="#BFBFBF" width="30.183" height="8.049"/>
	<rect x="359.03" y="194.871" fill="#BFBFBF" width="30.183" height="9.055"/>
	<rect x="359.03" y="208.956" fill="#BFBFBF" width="30.183" height="8.049"/>
	<rect x="312.75" y="173.743" opacity="0.1" width="57.348" height="50.305"/>
</g>
<g>
	<rect x="310.799" y="155.673" fill="#E6E6E6" width="57.396" height="68.472"/>
	<polygon fill="#E6E6E6" points="372.223,151.645 307.779,151.645 307.779,156.318 311.183,157.687 368.433,157.687 
		372.223,156.318 	"/>
	<polygon fill="#CCCCCC" points="307.54,155.673 311.183,157.687 368.433,157.687 372.076,155.673 	"/>
</g>
<polygon opacity="0.1" points="339.893,151.895 308,151.895 308,156.536 311.273,157.895 311,157.895 311,223.895 339.97,223.895 
	"/>
<line fill="none" stroke="#A6A6A6" stroke-width="3.5" stroke-miterlimit="10" x1="-0.25" y1="224.395" x2="479.25" y2="224.395"/>
<g>
	<polygon fill="#FFFFFF" points="231.531,17.895 237.141,17.895 248.628,30.895 242.495,30.895 	"/>
	<polygon fill="#FFFFFF" points="247.098,17.895 241.489,17.895 230.001,30.895 236.134,30.895 	"/>
</g>
<g>
	<rect x="431.211" y="209.396" fill="#B4C295" width="2.071" height="14.499"/>
	<rect x="431.211" y="209.396" fill="#999999" width="2.071" height="14.499"/>
	<path fill="#BFBFBF" d="M438.623,210.26c0,3.74-3.033,6.772-6.775,6.772c-3.742,0-6.775-3.032-6.775-6.772
		s3.033-15.413,6.775-15.413C435.59,194.847,438.623,206.52,438.623,210.26z"/>
	<line fill="none" stroke="#D9D9D9" stroke-miterlimit="10" x1="431.729" y1="214.574" x2="431.729" y2="202.146"/>
	
		<line fill="none" stroke="#D9D9D9" stroke-width="0.9596" stroke-miterlimit="10" x1="431.74" y1="208.408" x2="435.521" y2="204.627"/>
	
		<line fill="none" stroke="#D9D9D9" stroke-width="0.9596" stroke-miterlimit="10" x1="431.74" y1="211.755" x2="427.958" y2="207.974"/>
	<g>
		<rect x="413.731" y="211.416" fill="#B4C295" width="2.08" height="12.479"/>
		<rect x="413.731" y="211.416" fill="#999999" width="2.08" height="12.479"/>
		<path fill="#BFBFBF" d="M420.748,211.653c0,3.354-2.72,6.073-6.076,6.073c-3.356,0-6.076-2.719-6.076-6.073
			s2.72-13.823,6.076-13.823C418.028,197.83,420.748,208.299,420.748,211.653z"/>
		<line fill="none" stroke="#D9D9D9" stroke-miterlimit="10" x1="415.291" y1="215.576" x2="415.291" y2="204.137"/>
		
			<line fill="none" stroke="#D9D9D9" stroke-width="0.9596" stroke-miterlimit="10" x1="414.74" y1="210.18" x2="418.047" y2="206.873"/>
		
			<line fill="none" stroke="#D9D9D9" stroke-width="0.9596" stroke-miterlimit="10" x1="414.74" y1="213.107" x2="411.433" y2="209.8"/>
	</g>
	<g>
		<rect x="64.205" y="211.416" fill="#B4C295" width="2.08" height="12.479"/>
		<rect x="46.184" y="209.396" fill="#B4C295" width="2.071" height="14.499"/>
		<rect x="64.205" y="211.416" fill="#999999" width="2.08" height="12.479"/>
		<rect x="46.184" y="209.396" fill="#999999" width="2.071" height="14.499"/>
		<path fill="#BFBFBF" d="M71.007,211.653c0,3.354-2.72,6.073-6.076,6.073c-3.356,0-6.076-2.719-6.076-6.073
			s2.72-13.823,6.076-13.823C68.286,197.83,71.007,208.299,71.007,211.653z"/>
		<path fill="#BFBFBF" d="M54.394,210.26c0,3.74-3.033,6.772-6.775,6.772c-3.742,0-6.775-3.032-6.775-6.772
			s3.033-15.413,6.775-15.413C51.36,194.847,54.394,206.52,54.394,210.26z"/>
		<line fill="none" stroke="#D9D9D9" stroke-miterlimit="10" x1="47.737" y1="214.574" x2="47.737" y2="202.146"/>
		
			<line fill="none" stroke="#D9D9D9" stroke-width="0.9596" stroke-miterlimit="10" x1="47.51" y1="208.408" x2="51.292" y2="204.627"/>
		
			<line fill="none" stroke="#D9D9D9" stroke-width="0.9596" stroke-miterlimit="10" x1="47.51" y1="211.755" x2="43.729" y2="207.974"/>
		<line fill="none" stroke="#D9D9D9" stroke-miterlimit="10" x1="64.725" y1="215.576" x2="64.725" y2="204.137"/>
		
			<line fill="none" stroke="#D9D9D9" stroke-width="0.9596" stroke-miterlimit="10" x1="64.998" y1="210.18" x2="68.305" y2="206.873"/>
		
			<line fill="none" stroke="#D9D9D9" stroke-width="0.9596" stroke-miterlimit="10" x1="64.998" y1="213.107" x2="61.692" y2="209.8"/>
	</g>
</g>
<polygon opacity="0.1" points="239,53.895 222,53.895 222,60.895 212,60.895 212,69.895 203,69.895 203,223.895 239,223.895 "/>
<g>
	<rect x="328" y="184.895" fill="#B3B3B3" width="8" height="8"/>
	<rect x="316" y="184.895" fill="#B3B3B3" width="8" height="8"/>
	<rect x="344" y="184.895" fill="#CCCCCC" width="8" height="8"/>
	<rect x="356" y="184.895" fill="#CCCCCC" width="8" height="8"/>
	<rect x="328" y="198.895" fill="#B3B3B3" width="8" height="9"/>
	<rect x="316" y="198.895" fill="#B3B3B3" width="8" height="9"/>
	<rect x="344" y="198.895" fill="#CCCCCC" width="8" height="9"/>
	<rect x="356" y="198.895" fill="#CCCCCC" width="8" height="9"/>
	<rect x="328" y="169.895" fill="#B3B3B3" width="8" height="9"/>
	<rect x="316" y="169.895" fill="#B3B3B3" width="8" height="9"/>
	<rect x="344" y="169.895" fill="#CCCCCC" width="8" height="9"/>
	<rect x="356" y="169.895" fill="#CCCCCC" width="8" height="9"/>
</g>
</svg>
